<?xml version="1.0" encoding="UTF-8"?>
<svg id="Layer_2" data-name="Layer 2" xmlns="http://www.w3.org/2000/svg" viewBox="0 0 250.33 249.96">
  <defs>
    <style>
      .cls-1 {
        fill: #d41a68;
        stroke-width: 0px;
      }
    </style>
  </defs>
  <g id="Layer_1-2" data-name="Layer 1">
    <g>
      <path class="cls-1" d="M211.01,144.49c2.66,0,5.36.26,7.98-.05,9.84-1.16,19.37-3.35,26.9-10.42,6.03-5.66,5.88-13.25-.29-18.74-1.72-1.53-3.64-2.98-5.72-3.96-19.04-8.97-38.24-8.94-57.25-.11-5.69,2.64-10.76,6.79-10.61,13.89.15,7.03,5.41,10.73,11,13.65,8.74,4.58,18.19,6.16,27.99,5.73ZM179.1,143.23c-5.24.19-10.41.57-13.31,5.48-2.96,5-.25,9.6,2.06,14.05.31.59.66,1.16,1.08,1.67,13.45,16.39,30.32,26.62,51.74,28.39,4.86.4,9.94-.15,12.78-4.95,2.81-4.75,1.17-9.57-1.62-13.6-12.79-18.45-30.99-27.82-52.73-31.03ZM192.54,221.41c-3.49-21.69-13.07-40.7-32.31-54.02-3.49-2.41-7.57-4.05-11.69-1.71-4.31,2.45-4.81,6.99-4.75,11.37.08,6.03,1.61,11.83,3.82,17.42,5.79,14.62,13.87,27.63,27.07,36.73,3.66,2.53,7.84,4.72,12.56,2.39,4.7-2.32,4.47-6.96,5.29-12.18ZM139.63,211.94c-.14-10.25-.97-20.18-4.72-29.59-1.84-4.61-3.76-10.19-9.54-10.31-6.13-.13-8.15,5.55-9.96,10.38-5.45,14.56-5.65,29.58-3.37,44.74.84,5.6,2.24,11.08,4.94,16.1,1.73,3.2,3.59,6.55,7.94,6.69,4.42.15,6.31-3.19,8.11-6.36,1.13-2,1.92-4.21,2.69-6.38,2.93-8.24,3.68-16.83,3.9-25.27ZM104.68,174.65c-.12-3.56-.05-7.1-3.3-9.1-3.54-2.18-6.67,0-9.72,1.66-.72.39-1.37.94-2.01,1.47-13.68,11.16-22.09,25.86-27.95,42.17-1.9,5.29-3.41,10.8-2.57,16.55.87,5.99,4.33,7.84,9.97,5.52,3.28-1.35,5.99-3.56,8.51-5.97,9.88-9.45,16.85-20.84,22.13-33.35,2.59-6.15,4.49-12.46,4.94-18.95ZM24.32,189.74c3.91.09,7.59-.99,11.17-2.27,17.91-6.41,34.13-15.45,46.39-30.45,1.99-2.44,4.02-5.45,2.35-8.64-1.84-3.5-5.63-2.91-8.95-2.79-.82.03-1.63.26-2.45.42-12.76,2.47-24.04,8.31-34.78,15.34-7.53,4.93-14.75,10.27-19.82,17.9-1.54,2.31-3.34,4.78-1.82,7.79,1.71,3.38,5.01,2.57,7.91,2.71ZM146.69,76.78c.04,7.65,3.27,9.58,8.58,6.41,1.84-1.1,3.6-2.42,5.1-3.94,13.91-14.1,23.47-30.78,28.95-49.76.81-2.81,1.54-5.82.97-8.86-.8-4.27-3.27-5.64-7.17-3.74-3.16,1.53-5.82,3.82-8.22,6.39-11.96,12.81-20.47,27.69-26.09,44.22-1.17,3.43-1.64,7.09-2.13,9.29ZM38,113.74c-9.75.55-20.09.74-29.9,4.41C4.6,119.46-.15,120.36,0,124.96c.15,4.41,4.71,5.64,8.32,6.66,20.27,5.73,40.61,5.79,60.89.05,3.74-1.06,8.6-2.15,8.54-6.95-.06-4.82-5.15-5.64-8.76-6.87-9.85-3.37-20.17-3.8-31-4.11ZM226.69,60.35c-1.19.13-2.74.09-4.16.48-19.94,5.47-37.44,15.26-51.94,30.08-2.78,2.84-6.85,6.42-4.19,10.67,2.55,4.06,7.63,2.32,11.55,1.46,10.3-2.25,19.71-6.82,28.71-12.18,9.6-5.72,18.84-11.97,25.51-21.2,1.39-1.93,3.15-4.13,1.84-6.83-1.48-3.06-4.45-2.29-7.33-2.48ZM22.24,60.4c-2.09.22-4.19-.56-5.32,1.42-1.18,2.07.11,3.84,1.18,5.49.71,1.1,1.61,2.12,2.56,3.04,15.44,14.9,33.51,25.3,54.08,31.33,3.25.95,7.59,2.67,9.57-.91,1.95-3.54-1.86-6.32-4.24-8.72-11.14-11.23-24.57-19.03-38.81-25.59-6.18-2.85-12.49-5.33-19.01-6.06ZM103.18,79.98c-.51-2.17-.91-4.82-1.76-7.32-5.48-16-13.8-30.5-23.86-44.02-2.97-3.99-6.03-7.98-10.14-10.93-1.28-.92-2.49-2.44-4.39-1.47-2.17,1.11-1.56,3.23-1.31,4.89.42,2.77,1.09,5.56,2.08,8.18,6.4,16.91,15.29,32.41,26.68,46.45,2.19,2.7,4.56,5.32,7.56,7.2,1.08.68,2.2,1.66,3.64.96,1.48-.72,1.18-2.23,1.51-3.95ZM131.35,38.59c-.44-10.7-.5-21.51-2.79-32.12C128.02,3.95,127.86,0,125.14,0c-2.81,0-2.96,3.99-3.44,6.47-3.34,17.27-2.87,34.71-1.79,52.13.34,5.44.97,10.93,2.91,16.11.43,1.15.67,2.89,2.34,2.85,1.61-.03,1.91-1.68,2.35-2.87.51-1.39.84-2.86,1.16-4.31,2.31-10.45,2.15-21.11,2.68-31.8Z"/>
      <path class="cls-1" d="M211.01,144.49c-9.8.43-19.24-1.16-27.99-5.73-5.59-2.92-10.85-6.62-11-13.65-.15-7.1,4.92-11.25,10.61-13.89,19.01-8.82,38.21-8.86,57.25.11,2.07.98,3.99,2.43,5.72,3.96,6.17,5.49,6.32,13.08.29,18.74-7.53,7.07-17.06,9.26-26.9,10.42-2.63.31-5.32.05-7.98.05Z"/>
      <path class="cls-1" d="M179.1,143.23c21.74,3.21,39.94,12.59,52.73,31.03,2.79,4.03,4.44,8.85,1.62,13.6-2.84,4.8-7.92,5.35-12.78,4.95-21.42-1.76-38.29-12-51.74-28.39-.42-.51-.78-1.09-1.08-1.67-2.32-4.45-5.02-9.05-2.06-14.05,2.91-4.91,8.07-5.29,13.31-5.48Z"/>
      <path class="cls-1" d="M192.54,221.41c-.83,5.22-.59,9.86-5.29,12.18-4.73,2.34-8.9.14-12.56-2.39-13.21-9.1-21.29-22.11-27.07-36.73-2.21-5.58-3.74-11.39-3.82-17.42-.06-4.38.44-8.93,4.75-11.37,4.12-2.34,8.21-.7,11.69,1.71,19.23,13.31,28.82,32.32,32.31,54.02Z"/>
      <path class="cls-1" d="M139.63,211.94c-.23,8.44-.97,17.03-3.9,25.27-.77,2.17-1.56,4.38-2.69,6.38-1.8,3.18-3.69,6.51-8.11,6.36-4.35-.14-6.21-3.49-7.94-6.69-2.71-5.01-4.1-10.5-4.94-16.1-2.28-15.16-2.08-30.18,3.37-44.74,1.81-4.83,3.83-10.51,9.96-10.38,5.78.12,7.7,5.7,9.54,10.31,3.75,9.41,4.58,19.34,4.72,29.59Z"/>
      <path class="cls-1" d="M104.68,174.65c-.45,6.49-2.35,12.8-4.94,18.95-5.28,12.51-12.25,23.91-22.13,33.35-2.52,2.41-5.23,4.62-8.51,5.97-5.64,2.32-9.09.46-9.97-5.52-.84-5.75.67-11.26,2.57-16.55,5.86-16.31,14.27-31.01,27.95-42.17.64-.52,1.29-1.07,2.01-1.47,3.05-1.66,6.18-3.84,9.72-1.66,3.24,1.99,3.18,5.54,3.3,9.1Z"/>
      <path class="cls-1" d="M24.32,189.74c-2.89-.13-6.2.67-7.91-2.71-1.52-3,.29-5.48,1.82-7.79,5.08-7.64,12.29-12.97,19.82-17.9,10.74-7.03,22.02-12.87,34.78-15.34.81-.16,1.63-.39,2.45-.42,3.32-.11,7.11-.71,8.95,2.79,1.67,3.19-.36,6.2-2.35,8.64-12.26,15-28.48,24.04-46.39,30.45-3.58,1.28-7.27,2.36-11.17,2.27Z"/>
      <path class="cls-1" d="M146.69,76.78c.49-2.2.96-5.87,2.13-9.29,5.62-16.53,14.13-31.4,26.09-44.22,2.4-2.57,5.05-4.86,8.22-6.39,3.9-1.89,6.37-.53,7.17,3.74.57,3.04-.15,6.05-.97,8.86-5.48,18.99-15.04,35.67-28.95,49.76-1.5,1.52-3.27,2.85-5.1,3.94-5.32,3.17-8.55,1.24-8.58-6.41Z"/>
      <path class="cls-1" d="M38,113.74c10.83.31,21.15.74,31,4.11,3.61,1.23,8.7,2.05,8.76,6.87.06,4.8-4.8,5.89-8.54,6.95-20.28,5.74-40.62,5.68-60.89-.05-3.62-1.02-8.18-2.26-8.32-6.66-.15-4.6,4.59-5.5,8.09-6.81,9.81-3.67,20.14-3.86,29.9-4.41Z"/>
      <path class="cls-1" d="M226.69,60.35c2.88.19,5.85-.58,7.33,2.48,1.3,2.7-.45,4.91-1.84,6.83-6.67,9.23-15.91,15.48-25.51,21.2-9,5.36-18.41,9.93-28.71,12.18-3.92.86-9,2.6-11.55-1.46-2.67-4.25,1.41-7.82,4.19-10.67,14.5-14.82,32-24.6,51.94-30.08,1.42-.39,2.96-.35,4.16-.48Z"/>
      <path class="cls-1" d="M22.24,60.4c6.52.72,12.82,3.21,19.01,6.06,14.24,6.55,27.67,14.35,38.81,25.59,2.38,2.4,6.19,5.18,4.24,8.72-1.97,3.58-6.32,1.86-9.57.91-20.56-6.03-38.64-16.43-54.08-31.33-.95-.92-1.85-1.93-2.56-3.04-1.06-1.65-2.36-3.42-1.18-5.49,1.13-1.98,3.23-1.21,5.32-1.42Z"/>
      <path class="cls-1" d="M103.18,79.98c-.34,1.72-.04,3.23-1.51,3.95-1.44.7-2.56-.29-3.64-.96-3-1.88-5.36-4.5-7.56-7.2-11.39-14.04-20.28-29.54-26.68-46.45-.99-2.62-1.65-5.41-2.08-8.18-.25-1.66-.86-3.78,1.31-4.89,1.9-.97,3.11.55,4.39,1.47,4.11,2.95,7.16,6.93,10.14,10.93,10.06,13.52,18.38,28.02,23.86,44.02.85,2.49,1.25,5.14,1.76,7.32Z"/>
      <path class="cls-1" d="M131.35,38.59c-.53,10.69-.37,21.35-2.68,31.8-.32,1.45-.65,2.92-1.16,4.31-.44,1.19-.73,2.84-2.35,2.87-1.68.03-1.91-1.7-2.34-2.85-1.94-5.18-2.57-10.67-2.91-16.11-1.09-17.42-1.56-34.86,1.79-52.13C122.18,3.99,122.33,0,125.14,0c2.72,0,2.88,3.95,3.43,6.47,2.29,10.61,2.34,21.42,2.79,32.12Z"/>
    </g>
  </g>
</svg>